/* XPM */
static char *result[] = {
/* columns rows colors chars-per-pixel */
"32 32 127 2 ",
"   c #000000",
".  c #090705",
"X  c #0C0A07",
"o  c #0D0D0A",
"O  c #12120E",
"+  c #18130E",
"@  c #131312",
"#  c #1C1712",
"$  c #1D1C15",
"%  c #171818",
"&  c #1F1F18",
"*  c #221D16",
"=  c #1F201C",
"-  c #3B3B03",
";  c #3B3C0C",
":  c #24241D",
">  c #2A281F",
",  c #201C21",
"<  c #272822",
"1  c #2A2B22",
"2  c #2E2F2F",
"3  c #302E24",
"4  c #333226",
"5  c #353529",
"6  c #3A372C",
"7  c #3C3B2D",
"8  c #2E3030",
"9  c #333433",
"0  c #383533",
"q  c #373835",
"w  c #383936",
"e  c #3B3D39",
"r  c #3F403B",
"t  c #414101",
"y  c #44430C",
"u  c #4F4F17",
"i  c #535314",
"p  c #56561E",
"a  c #5C5C1D",
"s  c #5C5C20",
"d  c #42433E",
"f  c #4E4B39",
"g  c #5E543C",
"h  c #61563D",
"j  c #7E5D3A",
"k  c #616122",
"l  c #6C6C2D",
"z  c #464740",
"x  c #4B4C43",
"c  c #4F5047",
"v  c #505147",
"b  c #54554A",
"n  c #57584C",
"m  c #5B5C4F",
"M  c #544B57",
"N  c #554C58",
"B  c #5C5D50",
"V  c #575059",
"C  c #685D43",
"Z  c #5F6052",
"A  c #7E735B",
"S  c #645C62",
"D  c #686164",
"F  c #6F6769",
"G  c #6F686A",
"H  c #746D6C",
"J  c #857A3C",
"K  c #D55E1C",
"L  c #D76625",
"P  c #D96E2D",
"I  c #C17F3F",
"U  c #8E6D47",
"Y  c #8F6E49",
"T  c #92714B",
"R  c #98754C",
"E  c #81765E",
"W  c #83795F",
"Q  c #9B7850",
"!  c #9D7D58",
"~  c #B77542",
"^  c #BA7744",
"/  c #BC7A47",
"(  c #BF7D4A",
")  c #A07F5A",
"_  c #C07D4B",
"`  c #808000",
"'  c #87870B",
"]  c #89890F",
"[  c #8D8D15",
"{  c #93931E",
"}  c #959520",
"|  c #E38734",
" . c #EC9E3A",
".. c #C0C000",
"X. c #C7C716",
"o. c #C9C91D",
"O. c #CACA21",
"+. c #D5CA3E",
"@. c #8D8143",
"#. c #A68547",
"$. c #AA894A",
"%. c #A2815B",
"&. c #AF8A6A",
"*. c #B08C6A",
"=. c #C28242",
"-. c #CE8D40",
";. c #C0804C",
":. c #C09F47",
">. c #C68453",
",. c #CB8D5E",
"<. c #E38E4A",
"1. c #C0A047",
"2. c #C1A048",
"3. c #F6B541",
"4. c #ECA651",
"5. c #F6BD57",
"6. c #ECAE67",
"7. c #FFCC47",
"8. c #FFD55E",
"9. c #F6C66E",
"0. c #FFDD74",
"q. c #748D9B",
"w. c #7A919C",
"e. c #A1A69B",
"r. c #F6CE84",
"t. c #FFE58B",
"y. c #FFEDA1",
/* pixels */
"M M +   2 q.M M M M M N N N * U 0 q.N N M M M M +   2 q.M N N N ",
"2 2 M   q.2 2 2 2 2 2 8 e z _ K e.d r 2 2 2 2 2 M   q.2 8 8 8 8 ",
"2 2 2   M 9 q e q 9 9 z x ^ L L ,.v x 0 q q e q N   M 2 8 8 8 8 ",
"2 2 2   M e z x x x x c / P P P L E b c x x x z d   M 8 8 8 8 8 ",
"8 8 +   N z v b b b b ( P P P | P _ B b b b ! c 4 o M 2 8 8 8 8 ",
"2 8 +   S v b B B B A P P P 3.3.P P _ B B B P ! 6 + M 2 8 8 8 8 ",
"+ +   O 5 H B _ ) C $.P P 3.7.7.3.P P W f >.P ^ 1 = # M 8 8 + 8 ",
"    . & 1 5 ^ P P e P P 3.7.7.7.7.| P ^ T P P P 4 > O           ",
"M N S F H >.P P P %.P | 7.8.y.7.7.3.P P P P P P *.G D V N #   8 ",
"2 e x b ( P P P P P P  .7.t.y.t.7.7.P P P  . .P P n c r 8 N   q.",
"9 d c %.P P P 3.P P P | 8.y.y.y.t.7.P P P 7.7.P P ( b f e 8   N ",
"0 x v P P P 3.7.3.P P P 9.y.y.y.y.7.P P 3.7.7.3.P P %.c z #   N ",
"r x ) P P 3.7.7.7. .P P P 6.6.6.6.P P <.7.7.7.7. .P P b x $   N ",
"d 7 ) P  .7.8.8.7.3.P P P P P P P P P 3.7.t.t.7.7.P P Y 1 #   @ ",
"$ < U P 7.7.y.t.3.P P P -.$.$.$.$.=.P 7.0.y.y.t.7. .P #.p $     ",
"S H R P 7.0.y.y.<.P P P $.l l l r T P 3.4.r.y.y.0. .P #.a 0 M N ",
"r x &.P  .y.y.0.P | | P ~ l l r l %.P P P <.y.y.t. .P #.a < 8 8 ",
"0 x ) L P r.r.P P 3.3.P P h r l } P P P P P r.y.r.P P #.: = 8 8 ",
"9 z 6 ~ P P P P | 7.7.| P P @.@.P P P | P P P P P P =.k = y @ 8 ",
"2 w 6 5 $.P P | 7.7.7.7.| P / $.P P | 3.P P P P P =.3 : i t - . ",
"2 8 1 1 f U P  .7.8.8.7.3.P P P P | 7.7.| P P #.7 4 k i t t t   ",
"2 2 * * r T P 7.8.y.y.8.7.| P P | 7.7.7.7.| P P l k a t t t t   ",
"@ #   * } 1.P 7.0.y.y.y.8. .P P 4.7.8.0.8.3.P P } g a t - t -   ",
"      [ { 1.P 3.t.y.y.y.0. .P P 7.8.y.y.y.8.| P #.s i t t -     ",
"M M , [ o.+.P | 0.y.y.y.y.| P P 3.0.y.y.y.0. .P #.k i y @ X   8 ",
"2 2 @ ' X.O.-.P <.6.6.6.<.P P P | 0.y.y.y.0.| P #.a u @ 8 N   q.",
"2 2 @ . [ { b L P P P P P P U P P <.6.6.6.<.P L J s % 2 8 8   N ",
"2 2 ;   X $ k h U R 2.$.U U 4 g 1.1.2.2.$.U #.J s < 9 2 8 @   N ",
"4 + . ` ` o i : { } O.} > : : { { o.o.{ } < < < 1 0 2 2 8 +   M ",
"3 o J ` `   y O [ [ X.X.[ O o o ' X.X.{ [ : : q 8 2 2 2 8 #   M ",
"8 . ` ..`   t       ` `     t       `     X M 2 2 + 2 + +     # ",
"          t t t           t   t t                               "
};
