/* XPM */
static char *result[] = {
/* columns rows colors chars-per-pixel */
"32 32 241 2 ",
"   c #544B58",
".  c #18140E",
"X  c black",
"o  c #2E2F2F",
"O  c #748C9B",
"+  c #544B57",
"@  c #574E59",
"#  c #1F1A14",
"$  c #7A5837",
"%  c #3A3B38",
"&  c #788F9C",
"*  c #564D58",
"=  c #18130E",
"-  c #748D9B",
";  c #544C58",
":  c #313231",
">  c #383936",
",  c #3D3E3A",
"<  c #BD7244",
"1  c #D25412",
"2  c #9DA39A",
"3  c #3E3E3A",
"4  c #393A37",
"5  c #2E3030",
"6  c #303130",
"7  c #333433",
"8  c #353533",
"9  c #323332",
"0  c #41423D",
"q  c #B76E3D",
"w  c #D45917",
"e  c #D45A19",
"r  c #C78656",
"t  c #454640",
"y  c #353634",
"u  c #544C57",
"i  c #40413C",
"p  c #43443E",
"a  c #B7703F",
"s  c #D45C1A",
"d  c #D55D1B",
"f  c #D55E1C",
"g  c #746A55",
"h  c #474740",
"j  c #42433D",
"k  c #030302",
"l  c #564D59",
"z  c #967553",
"x  c #474841",
"c  c #B87240",
"v  c #D55E1D",
"b  c #D55F1D",
"n  c #E07925",
"m  c #BB7442",
"M  c #4B4C44",
"N  c #484942",
"B  c #44453F",
"V  c #2A251C",
"C  c #070705",
"Z  c #5E565F",
"A  c #9A7854",
"S  c #4C4D44",
"D  c #756C56",
"F  c #F5AD33",
"G  c #4D4E45",
"H  c #494A42",
"J  c #302B20",
"K  c #0F0F0C",
"L  c #0B0B08",
"P  c #2C281E",
"I  c #696164",
"U  c #BA7341",
"Y  c #B66E3B",
"T  c #4E4F46",
"R  c #FFC73A",
"E  c #766C57",
"W  c #3B372A",
"Q  c #8F6C46",
"!  c #1E1E17",
"~  c #14140F",
"^  c #1B1610",
"/  c #18130F",
"(  c #13130F",
")  c #1D1D16",
"_  c #856340",
"`  c #27271E",
"'  c #B16A38",
"]  c #212119",
"[  c #191913",
"{  c #655D63",
"}  c #6A6266",
"|  c #9A7955",
" . c #FFD053",
".. c #FFEB9D",
"X. c #A98466",
"o. c #675F63",
"O. c #615A5F",
"+. c #564E58",
"@. c #363735",
"#. c #EA932C",
"$. c #FFE285",
"%. c #303231",
"&. c #010000",
"*. c #987754",
"=. c #363836",
"-. c #343533",
";. c #F5BF65",
":. c #F5B64C",
">. c #3D3F3B",
",. c #1B1611",
"<. c #EAA55D",
"1. c #40423D",
"2. c #1E1914",
"3. c #3C3D39",
"4. c #302D21",
"5. c #866440",
"6. c #24221A",
"7. c #0E0E0B",
"8. c #12120E",
"9. c #1B1B15",
"0. c #84623F",
"q. c #FFD96C",
"w. c #BD7737",
"e. c #A17F40",
"r. c #9F7D3F",
"t. c #4C4C14",
"y. c #11110D",
"u. c #5F575F",
"i. c #665E64",
"p. c #8F6B45",
"a. c #5D5D1D",
"s. c #26261D",
"d. c #AF6937",
"f. c #F5C87D",
"g. c #545414",
"h. c #2E2C2D",
"j. c #A98366",
"k. c #E0823D",
"l. c #817638",
"z. c #21221E",
"x. c #594E38",
"c. c #9E7D3E",
"v. c #171712",
"b. c #181815",
"n. c #9E7C3D",
"m. c #42420B",
"M. c #111212",
"N. c #1F1F18",
"B. c #C2794A",
"V. c #BD7736",
"C. c #534834",
"Z. c #4A4A0A",
"A. c #424202",
"S. c #3E3E06",
"D. c #060606",
"F. c #262219",
"G. c #3E3B36",
"H. c #2A2B21",
"J. c #584D37",
"K. c #22221A",
"L. c #545415",
"P. c #4B4B0C",
"I. c #404000",
"U. c #1B1710",
"Y. c #181812",
"T. c #282722",
"R. c #A07F40",
"E. c #575718",
"W. c #515112",
"Q. c #424203",
"!. c #141410",
"~. c #8E8E16",
"^. c #BC9A3F",
"/. c #A07F3F",
"(. c #565616",
"). c #505010",
"_. c #3B3A02",
"`. c #030202",
"'. c #89890E",
"]. c #8D8D15",
"[. c #A07E3F",
"{. c #555516",
"}. c #4E4E0F",
"|. c #383800",
" X c #201C21",
".X c #87870B",
"XX c #C6C613",
"oX c #D7B53E",
"OX c #4D4D0D",
"+X c #42410B",
"@X c #151316",
"#X c #0C0A07",
"$X c #848407",
"%X c #C5C510",
"&X c #7E7435",
"*X c #535313",
"=X c #484811",
"-X c #050504",
";X c #88880D",
":X c #A59B31",
">X c #D45B19",
",X c #4E4E16",
"<X c #1B1B19",
"1X c #3B3C0C",
"2X c #080806",
"3X c #7A7031",
"4X c #815F3D",
"5X c #83613E",
"6X c #83613F",
"7X c #9F7D3E",
"8X c #544934",
"9X c #202019",
"0X c #A89E35",
"qX c #BB993F",
"wX c #7D7234",
"eX c #4F4F17",
"rX c #20211D",
"tX c #171818",
"yX c #808000",
"uX c #090907",
"iX c #161611",
"pX c #8C8C13",
"aX c #8D8D14",
"sX c #C6C615",
"dX c #1A1A14",
"fX c #181813",
"gX c #8B8B12",
"hX c #C6C614",
"jX c #1D1D17",
"kX c #1F1F1A",
"lX c #252621",
"zX c #444404",
"xX c #0B0B09",
"cX c #C4C40E",
"vX c #0C0C09",
"bX c #868609",
"nX c #C4C40D",
"mX c #1B1A17",
"MX c #1D1D1A",
"NX c #090705",
"BX c #C0C000",
/* pixels */
"    . X o O + + + + + + + @ # $ % & * + + + + + = X o - ; ; ; ; ",
"o o   X O o o o o o o : > , < 1 2 3 4 o o o o o + X O o 5 5 5 5 ",
"o o o X   6 7 4 8 : 9 , 0 q w e r t 0 y : 8 4 7 * X u o 5 5 5 5 ",
"o o o X   4 , i i i i p a s d f d g h j i 0 i , 4 k u o 5 5 5 5 ",
"o o . X l 3 p z x h x c d v b n b m M N x x x B V C u o 5 5 5 5 ",
"o o . k Z p N d A S D v b b F F b b m G S S M H J K u o 5 5 5 5 ",
". . X L P I U b Y T Y b b F R R F b b E W T Y Q ! ~ ^ u 5 5 / 5 ",
"X X k ( ) _ b b b ` b b F R R R R n b ' ` ' b v ] [ L X X X X X ",
"  l Z { } f b b b | b n R  ...R R F b b ' b b b X.o.O.+.; / X 5 ",
"o @.i x U b #.#.b b b #.R $...$.R R b b b b b b v H p % %.; &.- ",
"6 , B *.b b R R b b b n  .......$.R b b b b F b b U x i =.5 &.; ",
"-.i x d b F R R F b b b ;.........:.b b b F R F b b *.B >.,.X ; ",
"4 j *.v #.R R R R #.b b b <.<.<.<.b b b #.R R R #.b d x 1.2.X ; ",
"3.4.*.b F R $.$.R R b b b b b b b b b b #. . .R R b v 5.6.7.X / ",
"8.9.0.b R q.....$.R #.b w.e.e.e.e.w.b b b ..$.R R #.b r.t.y.X X ",
"u.i.p.b R q.......q.#.b e.a.a.a.s.d.b b b f...$.R #.b r.g.h.; ; ",
"4 j j.v #.......f.k.b b d.a.a.s.l.b n n b k.....q.#.b r.g.z.5 5 ",
"-.i x d b <...f.b b b b b x.s.l.b b F F b b f...f.b f c.v.b.5 5 ",
"6 , 4.0.b b b b b b n b b d.a.w.b n R R n b b b b b d n.( m.M.5 ",
"o @.P N.B.b b b b n F b b b 5.b n R R R R n b b b V.C.v.Z.A.S.D.",
"o 6 F.9.G.H.b b n R R n b b b b #.R  . .R F b b J.K.L.P.A.I.I.X ",
"o o U.Y.T.J.b n R R R R n b b b R  ..... .R n b R.E.W.Q.I.I.I.X ",
". . X !.~.^.b #.R  .q. .F b b b R q....... .#.b /.(.).I.I.I._.`.",
"X X X '.].^.b R  ....... .n b b F $.......q.#.b [.{.}.I.I.|.X X ",
"     X.XXXoXv F q.......q.#.b b n f.........n b [.g.OX+X@X#XX 5 ",
"o o M.$X%XoXd n q.......q.n b b b k.<.<.<.k.b v &X*X=XM.5 ; &.- ",
"o o M.-X;X:X>Xf k.<.<.<.k.v v _ v b b b b v f &X(.,X<Xo 5 5 &.; ",
"o o 1XX 2X8.3X4X5X0.^.^.6X7X8X9X0XqX^.^.^.5XwXL.eXrX7 o 5 / X ; ",
"o tXD.yXyXuXOXiXpXaXsXaXdXfXv.gXpXhXhX].aXdXjXkXlX9 o o 5 / X ; ",
"o M.yXyXyXX zXxX;X'.cXcX;XvX2X2XbXnXcX'.'.mXMX-.o o o o 5 / X ; ",
"o NXyXBXyXX I.X X X yXyXX X I.X X X yXX X #X+ o o = o = / X X / ",
"X X X X X I.I.I.X X X X X I.X I.I.X X X X X X X X X X X &.X X X "
};
