/* XPM */
static char *result[] = {
/* columns rows colors chars-per-pixel */
"32 32 124 2 ",
"   c #010000",
".  c #090705",
"X  c #090906",
"o  c #0D0D0A",
"O  c #12120E",
"+  c #18130E",
"@  c #141411",
"#  c #1B1611",
"$  c #1C1C16",
"%  c #171818",
"&  c #211F17",
"*  c #1F201B",
"=  c #3B3B03",
"-  c #3B3C0C",
";  c #24231B",
":  c #28251B",
">  c #2E291F",
",  c #201C21",
"<  c #262720",
"1  c #2C2D23",
"2  c #2E2F2F",
"3  c #302D21",
"4  c #322F2F",
"5  c #323125",
"6  c #31312A",
"7  c #3B392D",
"8  c #2E3030",
"9  c #333332",
"0  c #373835",
"q  c #383936",
"w  c #3D3D39",
"e  c #732C07",
"r  c #413D2E",
"t  c #3F403B",
"y  c #414101",
"u  c #42410B",
"i  c #4B4B0C",
"p  c #4C4C13",
"a  c #525214",
"s  c #5A5A1B",
"d  c #55551C",
"f  c #5D5D21",
"g  c #43443E",
"h  c #584D37",
"j  c #594F38",
"k  c #5E533C",
"l  c #60553D",
"z  c #636323",
"x  c #454640",
"c  c #474841",
"v  c #4B4C44",
"b  c #4F5047",
"n  c #53544A",
"m  c #544B57",
"M  c #544C58",
"N  c #5E565E",
"B  c #6D5F45",
"V  c #6F6652",
"C  c #786E58",
"Z  c #645C62",
"A  c #6A6266",
"S  c #6F6768",
"D  c #726A6A",
"F  c #9B3200",
"G  c #B24C1E",
"H  c #827738",
"J  c #857A3B",
"K  c #B36E3C",
"L  c #B3703C",
"P  c #BE7B3B",
"I  c #D2500E",
"U  c #D35614",
"Y  c #D35816",
"T  c #D55D1B",
"R  c #D6601F",
"E  c #D76624",
"W  c #C07D3C",
"Q  c #E17F2B",
"!  c #866541",
"~  c #886743",
"^  c #8B6944",
"/  c #906D47",
"(  c #926F49",
")  c #93714D",
"_  c #9B7B56",
"`  c #BA7542",
"'  c #BC7947",
"]  c #C47D4D",
"[  c #808000",
"{  c #858508",
"}  c #89890E",
"|  c #8C8C13",
" . c #8F8F18",
".. c #91911B",
"X. c #AA9F37",
"o. c #AAA038",
"O. c #CD8A3C",
"+. c #EB9631",
"@. c #EB9832",
"#. c #F5B139",
"$. c #C0C000",
"%. c #C7C718",
"&. c #C8C81A",
"*. c #FFC93F",
"=. c #A38243",
"-. c #BE9C42",
";. c #AB8668",
":. c #E18843",
">. c #D9B742",
",. c #EBA14A",
"<. c #EBA962",
"1. c #FFC940",
"2. c #FFD258",
"3. c #F5C269",
"4. c #FFDB70",
"5. c #748C9B",
"6. c #7E959E",
"7. c #B59E82",
"8. c #BBA484",
"9. c #A7AA9B",
"0. c #8EA2A3",
"q. c #F5CB81",
"w. c #FFE488",
"e. c #FFEC9F",
/* pixels */
"M M +   2 5.m m m m m m m m e F 2 5.M m M m m m +   2 5.m M M M ",
"2 2 M   5.2 2 2 2 2 2 2 2 9 G I 6.9 8 4 2 2 2 2 m   5.2 8 8 8 8 ",
"2 2 2   m 2 2 2 2 2 2 4 0 K U U 7.g w 2 2 2 2 2 m   m 2 8 8 8 8 ",
"2 2 2   m 9 9 w 0 9 9 g V Y T E ] v x 0 8 0 w 0 9   m 2 8 8 8 8 ",
"2 2 #   m w w x c g x v ` T +.R E C v c g c x g :   M 2 8 8 8 8 ",
"2 2 +   M g v v v v v ' R Q 1.+.E ' b v b v v v > X M 2 8 8 8 8 ",
"+ +     : A b n q n B E E #.1.#.E E ' n r n r 7 ; O + M 8 8 + 8 ",
"      o $ : 1 K ^ < ` E #.1.1.1.#.E E l 3 5 3 1 ; #             ",
"m M M Z A D O.E E M E E 1.1.4.1.*.+.E ' 6 n 0.D S A N m m +   8 ",
"2 8 w v v ' E E E 8.E @.1.w.e.w.*.#.E E 5 9.' E _ v g 2 2 m   5.",
"2 q x v ' E E E E E E @.1.e.e.e.w.*.E E P E E E E b c t 8 8   M ",
"9 w v _ E E E #.E E E O.2.e.e.e.e.*.E E E E E E E ) b g q +   M ",
"9 g v E E E #.1.#.E E E ,.e.e.e.e.<.E E E E @.E E E 7 v t #   M ",
"w 5 _ E E #.1.1.*.+.E E E <.<.<.<.R E E E #.1.E E E =.1 : X   @ ",
"# ; ! E +.1.2.2.*.1.E E E E E E E E E E @.1.1.#.E E P f a O     ",
"Z A ( E *.*.e.w.*.#.E E W =.=.=./ ` E E E 1.1.1.+.E E z d 6 M M ",
"w v ;.E 1.4.e.e.<.E E E ^ z z 5 z X.R R E <.e.w.1.E E =.d ; 8 8 ",
"w x _ E +.e.e.q.E E E E L 3 3 z =.E Q Q E :.e.e.4.@.E =.* * 8 8 ",
"9 g ( E E q.q.E E E Q E E k z J E E ,.#.T E q.e.4.@.E =.* p @ 8 ",
"2 g 5 K E E E E E +.*.+.E E k ] E Q *.*.+.E E q.3.E E ! a y - X ",
"2 w 1 ; ` E E E Q 1.1.1.Q E O.E Q 1.1.1.1.Q E E E R P a i y y   ",
"2 6 : ; 2 ^ E Q 1.1.1.1.#.E E E @.1.2.2.1.#.E E =.f s a y y y   ",
"+ +   $ ..-.E #.1.w.4.1.1.Q E E 1.2.e.e.2.1.Q E =.d a y y y =   ",
"      |  .-.E 1.2.e.e.2.1.@.E E 1.4.e.e.e.2.@.E =.s a y = =     ",
"M M , | %.>.E #.w.e.e.e.2.+.E E #.w.e.e.e.4.+.E =.s a u % X   8 ",
"2 2 @ } %.>.E Q e.e.e.e.w.Q E E Q q.e.e.e.e.Q E =.d p @ 8 M   5.",
"2 2 @ X ..o.E E :.<.<.<.:.E E E E :.<.<.<.:.E E z s < 8 8 8   M ",
"2 2 - . @ 1 z R E E E E E E K ~ E E E E E E E H z 5 q 8 8 +   M ",
"2 % X [ { + a f o.-.>.-.! k < ..X.>.>.-.-.! k 1 6 w 9 2 8 @   M ",
"2 @ [ [ H X a $ ....&.&. .$ $ $ | &.&. . .1 1 g g 9 2 2 8 +   M ",
"2 X [ $.H   y O O @ | | @ o i X o @ | @ @ & N 0 2 + 2 + +     + ",
"          y y y           y   y y                               "
};
