/* XPM */
static char *result[] = {
/* columns rows colors chars-per-pixel */
"32 32 55 1 ",
"  c #544B58",
". c #18140E",
"X c black",
"o c #2E2F2F",
"O c #748C9B",
"+ c #544B57",
"@ c #18130E",
"# c #748D9B",
"$ c #544C58",
"% c #2E3030",
"& c #544C57",
"* c #18130F",
"= c #D39F12",
"- c #19140E",
"; c #D29E11",
": c #4C483B",
"> c #343431",
", c #010000",
"< c #D7AA2D",
"1 c #997000",
"2 c #9B7100",
"3 c #BB8600",
"4 c #BA8500",
"5 c #B98400",
"6 c #B48100",
"7 c #AB7B00",
"8 c #A17500",
"9 c #9A7100",
"0 c #A67900",
"q c #B17F00",
"w c #B78300",
"e c #B88400",
"r c #D7AA2E",
"t c #9B7000",
"y c #B28000",
"u c #A77900",
"i c #FFF0C6",
"p c #9A7000",
"a c #B68200",
"s c #9C7200",
"d c #A87A00",
"f c #B58200",
"g c #9C7100",
"h c #AA7A00",
"j c #AC7C00",
"k c #B27F00",
"l c #B98500",
"z c #9E7200",
"x c #9F7200",
"c c #B38100",
"v c #B68300",
"b c #A87900",
"n c #9D7200",
"m c #AA7B00",
"M c #30302E",
/* pixels */
"  .XoO++++++++@XoO++++++@Xo#$$$$",
"oo XOooooooooo+XOooooooo+XOo%%%%",
"oooX ooooooooooXOooooooo+X&o%%%%",
"oooX ooooooooooX+ooooooooX&o%%%%",
"oo.X ooooooooo@X+ooooooo@X&o%%%%",
"oo.X ooooXXXXo@X+ooXXXXo@X&o%%%%",
"..XX.+oo@XXXX@XX@+oXXXX@XX@&%%*%",
"XXXXXXXXXXXXX======XXXXXXXXXXXXX",
"     ++-X==============+++&&$*X%",
"ooooooo+=========;======:>oo%$,#",
"ooooo<<==11112333311111==<<o%%,$",
"oooo<<<111112456789111111<<<%*X$",
"oooo<<<11111120qw4e111111<<<%*X$",
"o.or<<111111t4eyu211111111<<<XX*",
"XXXii<11111119uye411111111<iiXXX",
"  .iii111111pe4a7211111111iii$$$",
"oo iii1111111sdf4ep1111111iii%%%",
"oooX 1111111954f0g111111111o%%%%",
"oo.X 1111111shjklep11111111o%%%%",
"oo.X 1111111s744zp111111111o%%%%",
"oo.X 111111111xc33111111111o%%%%",
"oo.X 1111111133vb2111111111o%%%%",
"..XX.+1111111sdf4ep1111111&o%***",
"XXXXXXX1111195lqnp1111111XXXXXXX",
"     ++@X1111p2mf111111+++&&$*X%",
"ooooooo+XOooooooMoo+XOoooooo%$,#",
"ooooooooX+ooooooooooX+oooooo%%,$",
"ooooooo@X+ooooooooo@X+oooooo%*X$",
"ooooooo@X+ooooooooo@X+oooooo%*X$",
"ooooooo@X+ooooooooo@X+oooooo%*X$",
"o.o..@@XX@+oo@o@@@@XX@+oo@o@*XX*",
"XXXXXXXXXXXXXXXXXXXXXXXXXXXX,XXX"
};
