/* XPM */
static char *result[] = {
/* columns rows colors chars-per-pixel */
"32 32 55 1 ",
"  c #544B58",
". c #18140E",
"X c black",
"o c #2E2F2F",
"O c #748C9B",
"+ c #544B57",
"@ c #18130E",
"# c #748D9B",
"$ c #544C58",
"% c #2E3030",
"& c #544C57",
"* c #D7AA2D",
"= c #FFF0C6",
"- c #997000",
"; c #343431",
": c #18130F",
"> c #241F13",
", c #D39F12",
"< c #010000",
"1 c #9A7100",
"2 c #B88400",
"3 c #9A7000",
"4 c #D29E11",
"5 c #BB8600",
"6 c #A17500",
"7 c #BA8500",
"8 c #9B7100",
"9 c #9C7100",
"0 c #AB7B00",
"q c #B78300",
"w c #A77900",
"e c #A67900",
"r c #B98500",
"t c #9E7200",
"y c #A87900",
"u c #9D7200",
"i c #B58200",
"p c #30302E",
"a c #B48100",
"s c #B17F00",
"d c #B28000",
"f c #B68200",
"g c #B27F00",
"h c #B38100",
"j c #B68300",
"k c #AA7B00",
"l c #B98400",
"z c #A87A00",
"x c #AC7C00",
"c c #9F7200",
"v c #9C7200",
"b c #AA7A00",
"n c #9B7000",
"m c #010100",
"M c #D7AA2E",
/* pixels */
"  .XoO++++++++@XoO++++++@Xo#$$$$",
"oo XOooooooooo+XOooooooo+XOo%%%%",
"oooX ooooooooooXOooooooo+X&o%%%%",
"oooX oooooooo*===ooooooooX&o%%%%",
"oo.X oooooo***===ooooooo@X&o%%%%",
"oo.X ooooo*****==-----oo@X&o%%%%",
"..XX.+oo@;***----------@XX@&%%:%",
"XXXXXXXXX>,-------------XXXXXXXX",
"     ++@X,,-------------++&&$:X%",
"oooooXXX,,---------------ooo%$<#",
"oooooXXX,,---------------ooo%%<$",
"oooooXXX,,---------------ooo%:X$",
"oooooXXX,,---------------ooo%:X$",
"o.o..@@,,,-12---3-3---3--@o@:XX:",
"XXXXXXX,,456787829235823-XXX<XXX",
"  .XoO+,,,50qw207ert5y7uipO&$$$$",
"oo XOoo,,,5asddfiig7hjiskOoo%%%%",
"oooX oo,,,5le2w7z7x7c5zr8+oo%%%%",
"oo.X oo,,,878712vlb0-5vl3+oo%%%%",
"oo.X XXX,,-8-n-3-1vv---1-+oo%%%%",
"oo.X XXX,,---------------+oo%%%%",
"oo.X XXX,,---------------+oo%%%%",
"..XX.XXX,,---------------@&o%:::",
"XXXXXXXXX,,-------------XXXXXXXX",
"     ++@mo,-------------++&&$:X%",
"ooooooo+XO***----------ooooo%$<#",
"ooooooooX+*****==-----oooooo%%<$",
"ooooooo@X+o***===oo@X+oooooo%:X$",
"ooooooo@X+oooM===oo@X+oooooo%:X$",
"ooooooo@X+ooooooooo@X+oooooo%:X$",
"o.o..@@XX@+oo@o@@@@XX@+oo@o@:XX:",
"XXXXXXXXXXXXXXXXXXXXXXXXXXXX<XXX"
};
