/* XPM */
static char *ca79b4ffd9104db0c0ea8b7439ef6d3408ysmgmOMmCIThBW[] = {
/* columns rows colors chars-per-pixel */
"32 32 55 1 ",
"  c #544B58",
". c #18140E",
"X c black",
"o c #2E2F2F",
"O c #748C9B",
"+ c #544B57",
"@ c #18130E",
"# c #748D9B",
"$ c #544C58",
"% c #2E3030",
"& c #544C57",
"* c #030200",
"= c #997000",
"- c #B58200",
"; c #AA7B00",
": c #9B7100",
"> c #9A7000",
", c #18130F",
"< c #9D7200",
"1 c #B17F00",
"2 c #B98500",
"3 c #B98400",
"4 c #9A7100",
"5 c #B88400",
"6 c #BA8500",
"7 c #A87A00",
"8 c #9C7200",
"9 c #A87900",
"0 c #B68300",
"q c #BB8600",
"w c #010000",
"e c #B38100",
"r c #9F7200",
"t c #9E7200",
"y c #AB7B00",
"u c #B27F00",
"i c #AC7C00",
"p c #AA7A00",
"a c #9C7100",
"s c #A67900",
"d c #FFF0C6",
"f c #B68200",
"g c #D7AA2D",
"h c #B28000",
"j c #A77900",
"k c #9B7000",
"l c #D7AA2E",
"z c #B78300",
"x c #A17500",
"c c #B48100",
"v c #D39F12",
"b c #343431",
"n c #4C483B",
"m c #D29E11",
"M c #010100",
/* pixels */
"  .XoO++++++++@XoO++++++@Xo#$$$$",
"oo XOooooooooo+XOooooooo+XOo%%%%",
"oooX ooooooooooXOooooooo+X&o%%%%",
"oooX ooooooooooX+ooooooooX&o%%%%",
"oo.X ooooooooo@X+ooooooo@X&o%%%%",
"oo.X ooooooooo@*+ooooooo@X&o%%%%",
"..XX.+oo@======-;:>====@XX@&%%,%",
"XXXXXXX=======><1234=====XXXXXXX",
"     +=======>56-78=======&&$,X%",
"ooooo=========:90qq========o%$w#",
"ooooo=========qqer=========o%%w$",
"ooooo=========>t66y8=======o%,X$",
"ooooo========>52uip8=======o%,X$",
"o.o..=========as-634=======@,XX,",
"XXXddd=======>56-78=======dddXXX",
"  .ddd========:yf65>======ddd$$$",
"oo ddg========65hj4=======gdd%%%",
"oooggg========:jh56k======ggl%%%",
"oo.Xggg======56z1s:======ggg%%%%",
"oo.Xggg======4xyc36:=====ggg%%%%",
"oo.X ggvv=====qqqq:====vvggo%%%%",
"oo.X obnvvvvvvmvvvvvvvvvX+oo%%%%",
"..XX.+oo@vvvvvvvvvvvvvvXM@&o%,,,",
"XXXXXXXXXXXXXvvvvvvXXXXXXXXXXXXX",
"     ++@XXXXX++++++XXXX+++&&$,X%",
"ooooooo+XXXXXooooooXXXXooooo%$w#",
"ooooooooX+ooooooooooX+oooooo%%w$",
"ooooooo@X+ooooooooo@X+oooooo%,X$",
"ooooooo@X+ooooooooo@X+oooooo%,X$",
"ooooooo@X+ooooooooo@X+oooooo%,X$",
"o.o..@@XX@+oo@o@@@@XX@+oo@o@,XX,",
"XXXXXXXXXXXXXXXXXXXXXXXXXXXXwXXX"
};
