/* XPM */
static char *_fb8bf823cd949dfedb147b6a59dd391ZUAL7XJ7FY7U3tVL[] = {
/* columns rows colors chars-per-pixel */
"32 32 17 1 ",
"  c #544B58",
". c #18140E",
"X c black",
"o c #2E2F2F",
"O c #748C9B",
"+ c #544B57",
"@ c #18130E",
"# c #748D9B",
"$ c #544C58",
"% c white",
"& c #2E3030",
"* c #544C57",
"= c #18130F",
"- c #F8D878",
"; c #A80020",
": c #010000",
"> c gray3",
/* pixels */
"  .XoO+X++X+X+@XoO++++++XXo#$$$$",
"oo XOoX%XooX%XXXOooooooX%%Xo&&&&",
"oooX oX%XoooX%%XO%X%ooX%%X*o&&&&",
"oooX oX%%XoooX%X+X%XoX%%XX*o&&&&",
"oo.X oX%%%XoX%%%%%%%X%%%XX*o&&&&",
"oo.X ooX%%%X%%%%%%%%%%%%XX*o&&&&",
"..XX.+oX%%%%%%%%%%%%%%%XXXX*&&=&",
"XXXXXXXX%%%%%%XXX%%%%%%XXXXXXXXX",
"     ++@X%%%%X---X%%%XX+++X*$=X&",
"ooooooo+X%%%X--%;-X%X-XooX%X&$:#",
"ooooooooX%%X---%;-X%--XooX%X&&:$",
"oooooooX%%X%X--%%-X%--XooX%XX=X$",
"ooooooX%%X-X%X->>>>%-XoooX%%X=X$",
"o.o..X%XXXXX>>>>>>>%>X+ooX%%XXX=",
"XXXXXXXXXXXXX>>>>>>>XXXXXX%%XXXX",
"  .XoO++++X>>XX>>>>>X++@XX%%X$$$",
"oo XOoooooX>>>>XXX>X>Xo+XX%%X&&&",
"oooX ooooX>>>>>>>>>>>>XoXX%%X&X&",
"oo.X oooX>>>X>>>>>>>X>XXXX%%XX&&",
"oo.X oooX>>>X>>>>>>>>X>XXXXXX&&&",
"oo.X ooX>>>>X>>>>>>>>X>>>---X&&&",
"oo.X ooX>>>XX;;>>>>>;X>>>>--X&&&",
"..XX.+oX>>XX;;;;;;;;;XXX>>--X===",
"XXXXXXX--XX>>>;;;;;;>XXXXXXXXXXX",
"     +X----X>>>>>>>>XXO+++XX$=X&",
"ooooooXX--XXXX>>>>>XXXoooooo&$:#",
"oooooooXXXX>>>XXXXX>>Xoooooo&&:$",
"ooooooo@XX>>>>XooX>>>Xoooooo&=X$",
"ooooooo@XX>>>XXooXX>>>Xooooo&=X$",
"oooooooXX->>>XooooX>>>-XXooo&=X$",
"o.o..@XX-----XX@@XX-----XXo@=XX=",
"XXXXXXXXXXXXXXXXXXXXXXXXXXXX:XXX"
};
