/* XPM */
static char *_df1ba182a2e4188c66a7a0ed4ed08aahV3LPwuqLUc4o5V8[] = {
/* columns rows colors chars-per-pixel */
"32 32 26 1 ",
"  c #544B58",
". c #18140E",
"X c black",
"o c #2E2F2F",
"O c #748C9B",
"+ c #544B57",
"@ c #B1B0AE",
"# c #18130E",
"$ c #748D9B",
"% c #544C58",
"& c #FAE7E8",
"* c #D0262B",
"= c #2E3030",
"- c #544C57",
"; c #18130F",
": c #6B6B6A",
"> c #3A9532",
", c #36AB2B",
"< c gray75",
"1 c gray48",
"2 c #010000",
"3 c #D8D8D8",
"4 c gray35",
"5 c gray40",
"6 c #ACACAC",
"7 c #4E4E4E",
/* pixels */
"  .XoO++@@@@@@@@@@@@@@++#Xo$%%%%",
"oo XOooo@&&*&*&*&*&&&@oo+XOo====",
"oooX ooo@&***&**&**&*@oo+X-o====",
"oooX ooo@&&*&*&*&**&*@oooX-o====",
"oo.X ooo@@@@@@@@@@@@@@oo#X-o====",
"oo.X ooooooooo#X+ooooooo#X-o====",
"..XX.+@@@@@@@@@@@@@@@@@@@X#-==;=",
"XXXXXX@:::::::::::::::::@XXXXXXX",
"     +@:>,>,>>,>>,>,,,,>@+--%;X=",
"oooooo@:>>,,,,<<1>,,,,,>@ooo=%2$",
"oooooo@:>>>>>,<<1,,,,,,>@ooo==2%",
"oooooo@:>>>,<<111,,,,,,>@ooo=;X%",
"oooooo@:>>><1<<1,,,,,,,,@ooo=;X%",
"o.o..#@:>><11<<1111111<1@#o#;XX;",
"XXXXXX@:>><1<11<<1<<<<<<@XXX2XXX",
"  .XoO@:>>1><<1,,,1111<1@oO-%%%%",
"oo XOo@:>>>><1<1,,,,,,,,@Ooo====",
"oooX o@:>><<1,,<1,,,,,,,@+oo====",
"oo.X o@33>11>,,11,,,,,,,@+oo====",
"oo.X o@334>>,,,,,,,,,,,,@+oo====",
"oo.X o@55555,,,,,,,,,,,,@+oo====",
"oo.X o@66777,,,,,,,,,,,,@+oo====",
"..XX.+@334>>,,,,,,,,,,,,@#-o=;;;",
"XXXXXX@434>>,,,,,,,,,,,,@XXXXXXX",
"     +@444>,,,,,,,,,,,,,@+--%;X=",
"oooooo@:>,,,,,,,,,,,,,,,@ooo=%2$",
"oooooo@:>,,,>,,,,,,,,,,,@ooo==2%",
"oooooo@:>>,,,,,,,,,,,,,,@ooo=;X%",
"oooooo@:>,,,,,,,,,,,,,,>@ooo=;X%",
"oooooo@:>>>,,,,,,,,,,,,>@ooo=;X%",
"o.o..#@:>,,,,,,,,,,,,,,>@#o#;XX;",
"XXXXXX@:>,,,,,,,,>>>,>>>@XXX2XXX"
};
