/* XPM */
static char *result[] = {
/* columns rows colors chars-per-pixel */
"32 32 108 2 ",
"   c #000000",
".  c #090705",
"X  c #0B0907",
"o  c #0C0C0A",
"O  c #12120E",
"+  c #18130E",
"@  c #131412",
"#  c #1B1611",
"$  c #1C1B15",
"%  c #171818",
"&  c #1E1E1A",
"*  c #201B14",
"=  c #1F201C",
"-  c #3B3B03",
";  c #3B3C0C",
":  c #23231C",
">  c #28251B",
",  c #2B281E",
"<  c #201C21",
"1  c #252621",
"2  c #2D2D23",
"3  c #2E2F2F",
"4  c #302E23",
"5  c #343125",
"6  c #33302E",
"7  c #2E3030",
"8  c #333432",
"9  c #373835",
"0  c #383A37",
"q  c #3C3D39",
"w  c #433F30",
"e  c #3F403B",
"r  c #414101",
"t  c #42420C",
"y  c #4D4D0E",
"u  c #4C4C14",
"i  c #535313",
"p  c #515119",
"a  c #5A5A1A",
"s  c #43443E",
"d  c #584D37",
"f  c #594F38",
"g  c #5F543C",
"h  c #636324",
"j  c #454640",
"k  c #474841",
"l  c #4C4D44",
"z  c #4F5047",
"x  c #505047",
"c  c #54544A",
"v  c #544B57",
"b  c #554C58",
"n  c #786E58",
"m  c #7B715A",
"M  c #625B61",
"N  c #6B6467",
"B  c #6F6769",
"V  c #807637",
"C  c #827738",
"Z  c #867B3C",
"A  c #B26F3B",
"S  c #B4703D",
"D  c #BF7A3A",
"F  c #D76624",
"G  c #C07D3C",
"H  c #E17F2B",
"J  c #876642",
"K  c #896743",
"L  c #8B6A45",
"P  c #926F49",
"I  c #96734B",
"U  c #9A7956",
"Y  c #9E7E58",
"T  c #BB7643",
"R  c #BC7846",
"E  c #C47E4D",
"W  c #808000",
"Q  c #86860B",
"!  c #89890E",
"~  c #8B8B12",
"^  c #8F8F18",
"/  c #90901A",
"(  c #AAA038",
")  c #EB9732",
"_  c #EB9832",
"`  c #F5B139",
"'  c #C0C000",
"]  c #C5C512",
"[  c #C7C718",
"{  c #C8C81A",
"}  c #D3C837",
"|  c #A48243",
" . c #BE9C42",
".. c #AB8767",
"X. c #CB8D5C",
"o. c #E18843",
"O. c #D8B741",
"+. c #EBA962",
"@. c #FFC940",
"#. c #FFD258",
"$. c #FFDB70",
"%. c #748D9B",
"&. c #78909C",
"*. c #84999F",
"=. c #B8A183",
"-. c #F5CB81",
";. c #FFE488",
":. c #FFEC9F",
/* pixels */
"v v +   3 %.v v v v v v v b * @ w &.b b v v v v +   3 %.b b b b ",
"3 3 v   %.3 3 3 7 7 7 7 0 s M % *.s q 7 7 7 3 3 v   %.3 7 7 7 7 ",
"3 3 3   v 8 8 q 0 8 8 w s k z J =.l j 0 8 9 q 9 b   b 3 7 7 7 7 ",
"3 3 3   v 0 s j j j j k z U F F F n z j j j j w q   v 3 7 7 7 7 ",
"7 7 +   b s k U l l z x A F F F F R c x l x U k , . b 3 7 7 7 7 ",
"7 6 +   M j l F Y c c R F F ) F F F n c c c F U 5 @ b 3 7 7 7 7 ",
"+ +   o 4 B R F T c w F F F ` H F F R c w R F S : $ # b 7 7 # 3 ",
"      # : K F F F 4 K F F ` @.` F F F 3 K F F F , & o           ",
"b b M N N F F F F Y X.F ` @.@.@.` F F I F F F F ..N M b b +   7 ",
"3 0 s l T F _ _ F F F F @.@.$.$.@.H F F F ) ) F F z k e 8 b   %.",
"8 e l U F F @.@.F F F _ @.;.:.:.;.` F F F @.@.F F T l s 0 3   b ",
"8 s l F F ` @.@.` F F ) @.:.:.:.:.@.F F ` @.@.` F F U l e $   b ",
"q j U F ) @.@.@.` _ F F ` :.:.:.:.) F ) @.@.@.@.) F F l s $   b ",
"s 5 U F ` @.;.;.@.@.F F F +.+.+.+.F F ) ` :.;.@.@.F F V , O   + ",
"+ & J F @.$.:.:.;.` F F  .| | | | E F F H :.:.;.@.) F | p @     ",
"M N I F @.$.:.:.-.F F F I h h h 2 L F F F -.:.:.$.) F | a 6 v b ",
"q k ..F ) :.:.-.F F F F A h h 4 Z F F F F o.:.:.;.) F I a > 3 3 ",
"8 s l F F +.-.F F F H F F g 4 C F F F ) F F -.:.-.F F | * = 7 7 ",
"7 w 6 K F F F F F H @.H F F Z  .F F H ` H F F F F F S a $ t O 7 ",
"7 0 4 1 E F F F H @.@.@.H F S F F ) @.@.@.H F F F D > $ y r - . ",
"7 7 1 * w P F H @.@.@.@.` F F F H ` @.@.@.` F F g 2 a y r r r   ",
"7 7 $ * 3 K F ` @.;.$.@.` ) F F ` @.;.$.@.@.) F | a a r r r r   ",
"+ #   $ /  .F @.#.:.:.#.@._ F F @.#.:.:.#.@._ F | a i r r r -   ",
"      ~ ^  .F ` ;.:.:.:.#._ F F ` ;.:.:.:.#._ F | a y r r -     ",
"v v < ! [ O.F H :.:.:.:.;.H F F H :.:.:.:.;.H F | a u t % X   7 ",
"3 3 O Q [ } F F o.+.+.+.o.F F F F o.+.+.+.o.F F Z a u @ 3 v   %.",
"3 3 @ . ! ^ d F F F F F F F A K F F F F F F F D Z p * 7 3 3   v ",
"3 3 ;   X @ p d J J  . .J V : , (  . . . .J C a a * 0 7 3 #   b ",
"7 % . W W o i $ ^ / { / : = & ^ ~ [ [ ^ / : : : 2 8 3 3 7 @   v ",
"7 O W W W   t o ! ~ ] ] ! o X o Q ] ] ~ ~ & & 8 3 3 3 3 7 #   v ",
"7 . W ' W   r       W W     r       h X   X v 3 3 + 3 + +     # ",
"          r r r           r   r r     .                         "
};
