/* XPM */
static char *result[] = {
/* columns rows colors chars-per-pixel */
"32 32 55 1 ",
"  c #544B58",
". c #18140E",
"X c black",
"o c #2E2F2F",
"O c #748C9B",
"+ c #544B57",
"@ c #18130E",
"# c #748D9B",
"$ c #544C58",
"% c #2E3030",
"& c #544C57",
"* c #FFF0C6",
"= c #D7AA2E",
"- c #D7AA2D",
"; c #997000",
": c #18130F",
"> c #D39F12",
", c #010100",
"< c #010000",
"1 c #9A7100",
"2 c #9C7200",
"3 c #9A7000",
"4 c #9B7000",
"5 c #9B7100",
"6 c #B98400",
"7 c #BB8600",
"8 c #AB7B00",
"9 c #AA7A00",
"0 c #B88400",
"q c #BA8500",
"w c #B98500",
"e c #A87A00",
"r c #9F7200",
"t c #AC7C00",
"y c #A77900",
"u c #A67900",
"i c #AA7B00",
"p c #B17F00",
"a c #B58200",
"s c #B68300",
"d c #B38100",
"f c #B27F00",
"g c #B68200",
"h c #B28000",
"j c #B48100",
"k c #30302E",
"l c #9D7200",
"z c #A87900",
"x c #9E7200",
"c c #B78300",
"v c #9C7100",
"b c #A17500",
"n c #D29E11",
"m c #4C483B",
"M c #788E9A",
/* pixels */
"  .XoO++++++++@XoO++++++@Xo#$$$$",
"oo XOooooooooo+XOooooooo+XOo%%%%",
"oooX ooooooooooXOooooooo+X&o%%%%",
"oooX ooooooooo***=oooooooX&o%%%%",
"oo.X ooooooooo***---oooo@X&o%%%%",
"oo.X oooo;;;;;**-----ooo@X&o%%%%",
"..XX.+oo;;;;;;;;;;---o@@XX@&%%:%",
"XXXXXXX;;;;;;;;;;;;;>X,XXXXXXXXX",
"     ++;;;;;;;;;;;;;>>O+++&&$:X%",
"oooooo;;;;;;;;;;;;;;;>>XXXoo%$<#",
"oooooo;;;;;;;;;;;;;;;>>XXXoo%%<$",
"oooooo;;;;;;;;;;;;;;;>>XXXoo%:X$",
"oooooo;1;;;221;3;4;5;>>XXXoo%:X$",
"o.o..@3627;896201q5q5>>>o@o@:XX:",
"XXXXXX5we7rqtqeqy0u67>>>XXXX<XXX",
"  .XoOipasdqfaaghhpj7>>>XoO&$$$$",
"oo XOkalqz7xwuq80yc87>>>XOoo%%%%",
"oooX o;305730v05q5qb7n>>X+oo%%%%",
"oo.X o;;3;;;3;3;;;01;>>>X+oo%%%%",
"oo.X o;;;;;;;;;;;;;;;>>XXXoo%%%%",
"oo.X o;;;;;;;;;;;;;;;>>XXXoo%%%%",
"oo.X o;;;;;;;;;;;;;;;>>XXXoo%%%%",
"..XX.+;;;;;;;;;;;;;;;>>XXX&o%:::",
"XXXXXXX;;;;;;;;;;;;;>>XXXXXXXXXX",
"     ++;;;;;;;;;;;;;>mO+++&&$:X%",
"ooooooo+;;;;;;;;;;---Moooooo%$<#",
"ooooooooX;;;;;**-----+oooooo%%<$",
"ooooooo@X+oooo***---X+oooooo%:X$",
"ooooooo@X+oooo***-o@X+oooooo%:X$",
"ooooooo@X+ooooooooo@X+oooooo%:X$",
"o.o..@@XX@+oo@o@@@@XX@+oo@o@:XX:",
"XXXXXXXXXXXXXXXXXXXXXXXXXXXX<XXX"
};
